<?xml version="1.0" encoding="UTF-8" standalone="no"?>
<!DOCTYPE svg PUBLIC "-//W3C//DTD SVG 1.1//EN"
 "http://www.w3.org/Graphics/SVG/1.1/DTD/svg11.dtd">
<!-- Generated by graphviz version 2.44.1 (0)
 -->
<!-- Title: G Pages: 1 -->
<svg width="327pt" height="188pt"
 viewBox="0.00 0.00 327.24 188.00" xmlns="http://www.w3.org/2000/svg" xmlns:xlink="http://www.w3.org/1999/xlink">
<g id="graph0" class="graph" transform="scale(1 1) rotate(0) translate(4 184)">
<title>G</title>
<polygon fill="white" stroke="transparent" points="-4,4 -4,-184 323.24,-184 323.24,4 -4,4"/>
<!-- db -->
<g id="node1" class="node">
<title>db</title>
<ellipse fill="none" stroke="black" cx="173.44" cy="-18" rx="27" ry="18"/>
<text text-anchor="middle" x="173.44" y="-14.3" font-family="Times,serif" font-size="14.00">db</text>
</g>
<!-- server -->
<g id="node2" class="node">
<title>server</title>
<ellipse fill="none" stroke="black" cx="173.44" cy="-90" rx="32.49" ry="18"/>
<text text-anchor="middle" x="173.44" y="-86.3" font-family="Times,serif" font-size="14.00">server</text>
</g>
<!-- server&#45;&gt;db -->
<g id="edge4" class="edge">
<title>server&#45;&gt;db</title>
<path fill="none" stroke="black" d="M173.44,-71.7C173.44,-63.98 173.44,-54.71 173.44,-46.11"/>
<polygon fill="black" stroke="black" points="176.94,-46.1 173.44,-36.1 169.94,-46.1 176.94,-46.1"/>
</g>
<!-- updateprocess -->
<g id="node3" class="node">
<title>updateprocess</title>
<ellipse fill="none" stroke="black" cx="60.44" cy="-162" rx="60.39" ry="18"/>
<text text-anchor="middle" x="60.44" y="-158.3" font-family="Times,serif" font-size="14.00">updateprocess</text>
</g>
<!-- updateprocess&#45;&gt;server -->
<g id="edge1" class="edge">
<title>updateprocess&#45;&gt;server</title>
<path fill="none" stroke="black" d="M85.52,-145.46C102.69,-134.83 125.53,-120.68 143.62,-109.47"/>
<polygon fill="black" stroke="black" points="145.94,-112.15 152.6,-103.91 142.26,-106.2 145.94,-112.15"/>
</g>
<!-- inotify -->
<g id="node4" class="node">
<title>inotify</title>
<ellipse fill="none" stroke="black" cx="173.44" cy="-162" rx="34.39" ry="18"/>
<text text-anchor="middle" x="173.44" y="-158.3" font-family="Times,serif" font-size="14.00">inotify</text>
</g>
<!-- inotify&#45;&gt;server -->
<g id="edge2" class="edge">
<title>inotify&#45;&gt;server</title>
<path fill="none" stroke="black" d="M173.44,-143.7C173.44,-135.98 173.44,-126.71 173.44,-118.11"/>
<polygon fill="black" stroke="black" points="176.94,-118.1 173.44,-108.1 169.94,-118.1 176.94,-118.1"/>
</g>
<!-- dashboard -->
<g id="node5" class="node">
<title>dashboard</title>
<ellipse fill="none" stroke="black" cx="272.44" cy="-162" rx="46.59" ry="18"/>
<text text-anchor="middle" x="272.44" y="-158.3" font-family="Times,serif" font-size="14.00">dashboard</text>
</g>
<!-- dashboard&#45;&gt;server -->
<g id="edge3" class="edge">
<title>dashboard&#45;&gt;server</title>
<path fill="none" stroke="black" d="M250.96,-145.81C236.38,-135.5 216.95,-121.76 201.19,-110.62"/>
<polygon fill="black" stroke="black" points="203.06,-107.65 192.87,-104.74 199.02,-113.37 203.06,-107.65"/>
</g>
</g>
</svg>
