<?xml version="1.0" encoding="UTF-8" standalone="no"?>
<!DOCTYPE svg PUBLIC "-//W3C//DTD SVG 1.1//EN"
 "http://www.w3.org/Graphics/SVG/1.1/DTD/svg11.dtd">
<!-- Generated by graphviz version 2.44.1 (0)
 -->
<!-- Title: G Pages: 1 -->
<svg width="216pt" height="188pt"
 viewBox="0.00 0.00 215.89 188.00" xmlns="http://www.w3.org/2000/svg" xmlns:xlink="http://www.w3.org/1999/xlink">
<g id="graph0" class="graph" transform="scale(1 1) rotate(0) translate(4 184)">
<title>G</title>
<polygon fill="white" stroke="transparent" points="-4,4 -4,-184 211.89,-184 211.89,4 -4,4"/>
<!-- db -->
<g id="node1" class="node">
<title>db</title>
<ellipse fill="none" stroke="black" cx="116.44" cy="-18" rx="27" ry="18"/>
<text text-anchor="middle" x="116.44" y="-14.3" font-family="Times,serif" font-size="14.00">db</text>
</g>
<!-- server -->
<g id="node2" class="node">
<title>server</title>
<ellipse fill="none" stroke="black" cx="116.44" cy="-90" rx="32.49" ry="18"/>
<text text-anchor="middle" x="116.44" y="-86.3" font-family="Times,serif" font-size="14.00">server</text>
</g>
<!-- server&#45;&gt;db -->
<g id="edge3" class="edge">
<title>server&#45;&gt;db</title>
<path fill="none" stroke="black" d="M116.44,-71.7C116.44,-63.98 116.44,-54.71 116.44,-46.11"/>
<polygon fill="black" stroke="black" points="119.94,-46.1 116.44,-36.1 112.94,-46.1 119.94,-46.1"/>
</g>
<!-- updateprocess -->
<g id="node3" class="node">
<title>updateprocess</title>
<ellipse fill="none" stroke="black" cx="60.44" cy="-162" rx="60.39" ry="18"/>
<text text-anchor="middle" x="60.44" y="-158.3" font-family="Times,serif" font-size="14.00">updateprocess</text>
</g>
<!-- updateprocess&#45;&gt;server -->
<g id="edge2" class="edge">
<title>updateprocess&#45;&gt;server</title>
<path fill="none" stroke="black" d="M73.72,-144.41C80.72,-135.66 89.44,-124.75 97.18,-115.08"/>
<polygon fill="black" stroke="black" points="100.14,-116.98 103.65,-106.99 94.67,-112.61 100.14,-116.98"/>
</g>
<!-- inotify -->
<g id="node4" class="node">
<title>inotify</title>
<ellipse fill="none" stroke="black" cx="173.44" cy="-162" rx="34.39" ry="18"/>
<text text-anchor="middle" x="173.44" y="-158.3" font-family="Times,serif" font-size="14.00">inotify</text>
</g>
<!-- inotify&#45;&gt;server -->
<g id="edge1" class="edge">
<title>inotify&#45;&gt;server</title>
<path fill="none" stroke="black" d="M160.51,-145.12C153.22,-136.17 143.98,-124.81 135.84,-114.81"/>
<polygon fill="black" stroke="black" points="138.36,-112.37 129.33,-106.82 132.93,-116.79 138.36,-112.37"/>
</g>
</g>
</svg>
